<svg width="50" height="77" viewBox="0 0 50 77" fill="none" xmlns="http://www.w3.org/2000/svg">
<g clip-path="url(#clip0_17_317)">
<path d="M18.7784 31.3936C18.8065 31.6002 18.8595 31.8162 18.8564 32.0322C18.8252 34.3707 18.716 36.7124 18.7722 39.0479C18.8034 40.3063 18.4821 41.3645 17.7553 42.3506C17.3841 42.8515 17.0659 43.3931 16.7259 43.9128C16.6385 43.8971 16.5512 43.8815 16.4639 43.8658C16.4639 43.2178 16.4639 42.5698 16.4639 41.9217C16.4639 39.0948 16.4576 36.2648 16.4639 33.4378C16.467 32.3421 17.1314 31.5626 18.1577 31.3904H10.1316V64.678H38.4896V31.3904H18.7784V31.3936ZM32.0793 47.7227C30.033 49.4414 27.6623 50.3399 25.0701 50.5215C22.3844 50.3274 20.0355 49.4727 18.0017 47.7885C17.2094 47.1342 17.0846 46.3296 17.5463 45.4405C18.0111 44.5389 18.5195 43.6623 18.9968 42.7701C19.4148 41.9906 20.0885 41.6462 20.9152 41.8247C23.654 42.4195 26.3709 42.4132 29.1097 41.8216C29.9301 41.6431 30.607 42.0094 31.025 42.7858C31.5054 43.678 32.0138 44.5546 32.4786 45.4562C32.9184 46.3014 32.828 47.0966 32.0793 47.7258V47.7227ZM33.6702 43.8345C33.5579 43.8815 33.4456 43.9316 33.3333 43.9785C32.6938 42.8046 31.6145 41.6713 31.5054 40.4504C31.2371 37.4794 31.418 34.4678 31.418 31.4405C32.4006 31.1901 33.6483 31.979 33.6577 33.0653C33.6951 36.653 33.6702 40.2437 33.6702 43.8345Z" fill="#ED1C24"/>
<path d="M49.9532 31.4937C49.7848 31.4373 49.6912 31.3747 49.5945 31.3747C44.9186 31.3653 40.2396 31.3747 35.5637 31.3465C34.7807 31.3403 34.7589 31.7629 34.7495 32.3421C34.6871 35.8796 34.606 39.4172 34.5343 42.9548C34.5249 43.4275 34.5343 43.9033 34.5343 44.4637C35.2704 44.279 35.8694 44.0849 36.4839 43.9972C36.54 43.9878 36.5962 43.991 36.6523 44.0004C37.0547 44.0692 37.298 44.5201 37.1233 44.8926C37.0953 44.9521 37.0578 45.0022 37.011 45.0366C36.2406 45.6032 35.4171 46.0916 34.4906 46.6864C34.4844 46.7678 34.4501 47.0433 34.4438 47.3219C34.3846 49.9829 34.3658 52.6471 34.266 55.3049C34.1288 59.0366 31.4337 61.6413 27.7216 61.6819C26.1526 61.7007 24.5804 61.6851 23.0083 61.6819C18.6443 61.6788 16.1426 59.2683 15.9679 54.8666C15.8556 52.071 15.787 49.2723 15.7028 46.6457C14.8169 46.101 14.0308 45.669 13.3134 45.1462C13.2759 45.118 13.2447 45.0867 13.2198 45.046C12.9172 44.6046 13.2853 43.9941 13.8187 44.0223C13.8312 44.0223 13.8437 44.0223 13.853 44.0223C14.4176 44.088 14.9697 44.2727 15.6466 44.4355C15.5094 40.0026 15.3753 35.7137 15.2411 31.4279H10.3718C10.3219 27.9968 10.2689 24.694 10.4748 21.3975C10.5153 20.737 10.6962 20.0764 10.8616 19.4315C12.9203 11.4955 21.302 6.79644 29.1097 9.19447C34.7932 10.9413 38.9388 16.2289 39.2819 22.2428C39.3038 22.6278 39.3162 23.0129 39.3225 23.398H47.5825C47.5357 22.3242 47.4765 21.2504 47.4016 20.1797C47.2612 18.2356 46.8089 16.3667 46.132 14.5478C42.342 4.39527 31.2122 -1.77825 20.4754 0.456992C11.7537 2.27273 6.05465 7.63231 3.10687 15.991C2.33639 18.1761 2.05877 20.4771 2.02134 22.7906C1.98078 25.317 2.0151 27.8465 1.99326 30.3729C1.99014 30.7298 1.9184 31.0804 1.86537 31.4311H0V32.7584C0 41.6305 0 47.8666 0 56.7356C0 57.1457 0.131013 58.8269 0.215235 59.2276C3.21293 73.4279 14.4738 76.9999 25.6535 76.9999C36.2406 76.9999 49.9969 68.66 50 56.1721C50 47.5192 50 41.1547 50 32.5017C50 32.1605 49.9719 31.8192 49.9563 31.4905L49.9532 31.4937Z" fill="white"/>
</g>
<defs>
<clipPath id="clip0_17_317">
<rect width="50" height="77" fill="white"/>
</clipPath>
</defs>
</svg>
