<svg width="34" height="39" viewBox="0 0 34 39" fill="none" xmlns="http://www.w3.org/2000/svg">
<path d="M6.83778 16.5032C9.55778 22.4986 13.94 27.3923 19.2856 30.4642L23.4411 25.8034C23.9511 25.2314 24.7067 25.0408 25.3678 25.295C27.4833 26.0789 29.7689 26.5026 32.1111 26.5026C33.15 26.5026 34 27.4559 34 28.6211V36.0147C34 37.1798 33.15 38.1332 32.1111 38.1332C14.3744 38.1332 0 22.0113 0 2.11851C0 0.953329 0.85 0 1.88889 0H8.5C9.53889 0 10.3889 0.953329 10.3889 2.11851C10.3889 4.76665 10.7667 7.30886 11.4656 9.68159C11.6733 10.4231 11.5222 11.2493 10.9933 11.8425L6.83778 16.5032Z" fill="white"/>
</svg>
